<svg width="646" height="70" viewBox="0 0 646 70" fill="none" xmlns="http://www.w3.org/2000/svg" style="">
<path d="M52.1603 7.07209V52.0001H41.2163V25.0561L31.1683 52.0001H22.3363L12.2243 24.9921V52.0001H1.28027V7.07209H14.2083L26.8163 38.1761L39.2963 7.07209H52.1603Z" stroke="white" class="juUnWdxd_0"></path>
<path d="M65.1503 52.5121C63.2303 52.5121 61.6516 51.9574 60.4143 50.8481C59.2196 49.6961 58.6223 48.2881 58.6223 46.6241C58.6223 44.9174 59.2196 43.4881 60.4143 42.3361C61.6516 41.1841 63.2303 40.6081 65.1503 40.6081C67.0276 40.6081 68.5636 41.1841 69.7583 42.3361C70.9956 43.4881 71.6143 44.9174 71.6143 46.6241C71.6143 48.2881 70.9956 49.6961 69.7583 50.8481C68.5636 51.9574 67.0276 52.5121 65.1503 52.5121Z" stroke="white" class="juUnWdxd_1"></path>
<path d="M130.567 7.07209V52.0001H119.623V33.5041H102.599V52.0001H91.6553V7.07209H102.599V24.6721H119.623V7.07209H130.567Z" stroke="white" class="juUnWdxd_2"></path>
<path d="M136.292 34.0801C136.292 30.4108 136.974 27.1894 138.34 24.4161C139.748 21.6428 141.646 19.5094 144.036 18.0161C146.425 16.5228 149.092 15.7761 152.036 15.7761C154.553 15.7761 156.75 16.2881 158.628 17.3121C160.548 18.3361 162.02 19.6801 163.044 21.3441V16.2881H173.988V52.0001H163.044V46.9441C161.977 48.6081 160.484 49.9521 158.564 50.9761C156.686 52.0001 154.489 52.5121 151.972 52.5121C149.07 52.5121 146.425 51.7654 144.036 50.2721C141.646 48.7361 139.748 46.5814 138.34 43.8081C136.974 40.9921 136.292 37.7494 136.292 34.0801ZM163.044 34.1441C163.044 31.4134 162.276 29.2588 160.74 27.6801C159.246 26.1014 157.412 25.3121 155.236 25.3121C153.06 25.3121 151.204 26.1014 149.668 27.6801C148.174 29.2161 147.428 31.3494 147.428 34.0801C147.428 36.8108 148.174 38.9868 149.668 40.6081C151.204 42.1868 153.06 42.9761 155.236 42.9761C157.412 42.9761 159.246 42.1868 160.74 40.6081C162.276 39.0294 163.044 36.8748 163.044 34.1441Z" stroke="white" class="juUnWdxd_3"></path>
<path d="M192.849 21.3441C193.873 19.6801 195.345 18.3361 197.265 17.3121C199.185 16.2881 201.383 15.7761 203.857 15.7761C206.801 15.7761 209.468 16.5228 211.857 18.0161C214.247 19.5094 216.124 21.6428 217.489 24.4161C218.897 27.1894 219.601 30.4108 219.601 34.0801C219.601 37.7494 218.897 40.9921 217.489 43.8081C216.124 46.5814 214.247 48.7361 211.857 50.2721C209.468 51.7654 206.801 52.5121 203.857 52.5121C201.34 52.5121 199.143 52.0214 197.265 51.0401C195.388 50.0161 193.916 48.6721 192.849 47.0081V52.0001H181.905V4.64009H192.849V21.3441ZM208.465 34.0801C208.465 31.3494 207.697 29.2161 206.161 27.6801C204.668 26.1014 202.812 25.3121 200.593 25.3121C198.417 25.3121 196.561 26.1014 195.025 27.6801C193.532 29.2588 192.785 31.4134 192.785 34.1441C192.785 36.8748 193.532 39.0294 195.025 40.6081C196.561 42.1868 198.417 42.9761 200.593 42.9761C202.769 42.9761 204.625 42.1868 206.161 40.6081C207.697 38.9868 208.465 36.8108 208.465 34.0801Z" stroke="white" class="juUnWdxd_4"></path>
<path d="M230.847 12.5761C228.927 12.5761 227.348 12.0214 226.111 10.9121C224.916 9.76009 224.319 8.35209 224.319 6.68809C224.319 4.98142 224.916 3.57342 226.111 2.46408C227.348 1.31208 228.927 0.736084 230.847 0.736084C232.724 0.736084 234.26 1.31208 235.455 2.46408C236.692 3.57342 237.311 4.98142 237.311 6.68809C237.311 8.35209 236.692 9.76009 235.455 10.9121C234.26 12.0214 232.724 12.5761 230.847 12.5761ZM236.287 16.2881V52.0001H225.343V16.2881H236.287Z" stroke="white" class="juUnWdxd_5"></path>
<path d="M255.162 21.3441C256.186 19.6801 257.658 18.3361 259.578 17.3121C261.498 16.2881 263.695 15.7761 266.17 15.7761C269.114 15.7761 271.78 16.5228 274.17 18.0161C276.559 19.5094 278.436 21.6428 279.802 24.4161C281.21 27.1894 281.914 30.4108 281.914 34.0801C281.914 37.7494 281.21 40.9921 279.802 43.8081C278.436 46.5814 276.559 48.7361 274.17 50.2721C271.78 51.7654 269.114 52.5121 266.17 52.5121C263.652 52.5121 261.455 52.0214 259.578 51.0401C257.7 50.0161 256.228 48.6721 255.162 47.0081V52.0001H244.218V4.64009H255.162V21.3441ZM270.778 34.0801C270.778 31.3494 270.01 29.2161 268.474 27.6801C266.98 26.1014 265.124 25.3121 262.906 25.3121C260.73 25.3121 258.874 26.1014 257.338 27.6801C255.844 29.2588 255.098 31.4134 255.098 34.1441C255.098 36.8748 255.844 39.0294 257.338 40.6081C258.874 42.1868 260.73 42.9761 262.906 42.9761C265.082 42.9761 266.938 42.1868 268.474 40.6081C270.01 38.9868 270.778 36.8108 270.778 34.0801Z" stroke="white" class="juUnWdxd_6"></path>
<path d="M333.538 7.07209V15.8401H321.634V52.0001H310.69V15.8401H298.786V7.07209H333.538Z" stroke="white" class="juUnWdxd_7"></path>
<path d="M336.854 34.0801C336.854 30.4108 337.537 27.1894 338.902 24.4161C340.31 21.6428 342.209 19.5094 344.598 18.0161C346.988 16.5228 349.654 15.7761 352.598 15.7761C355.116 15.7761 357.313 16.2881 359.19 17.3121C361.11 18.3361 362.582 19.6801 363.606 21.3441V16.2881H374.55V52.0001H363.606V46.9441C362.54 48.6081 361.046 49.9521 359.126 50.9761C357.249 52.0001 355.052 52.5121 352.534 52.5121C349.633 52.5121 346.988 51.7654 344.598 50.2721C342.209 48.7361 340.31 46.5814 338.902 43.8081C337.537 40.9921 336.854 37.7494 336.854 34.0801ZM363.606 34.1441C363.606 31.4134 362.838 29.2588 361.302 27.6801C359.809 26.1014 357.974 25.3121 355.798 25.3121C353.622 25.3121 351.766 26.1014 350.23 27.6801C348.737 29.2161 347.99 31.3494 347.99 34.0801C347.99 36.8108 348.737 38.9868 350.23 40.6081C351.766 42.1868 353.622 42.9761 355.798 42.9761C357.974 42.9761 359.809 42.1868 361.302 40.6081C362.838 39.0294 363.606 36.8748 363.606 34.1441Z" stroke="white" class="juUnWdxd_8"></path>
<path d="M380.292 34.2081C380.292 30.6668 381.017 27.5094 382.468 24.7361C383.961 21.9628 385.945 19.8081 388.42 18.2721C390.937 16.6934 393.668 15.9041 396.612 15.9041C398.873 15.9041 400.9 16.3094 402.692 17.1201C404.484 17.8881 405.934 18.9761 407.044 20.3841V16.2881H417.988V69.0241H407.044V47.5201C405.806 49.0134 404.292 50.2081 402.5 51.1041C400.75 52.0001 398.745 52.4481 396.484 52.4481C393.582 52.4481 390.894 51.6801 388.42 50.1441C385.945 48.6081 383.961 46.4534 382.468 43.6801C381.017 40.9068 380.292 37.7494 380.292 34.2081ZM407.044 34.1441C407.044 32.2241 406.66 30.6241 405.892 29.3441C405.166 28.0214 404.206 27.0401 403.012 26.4001C401.817 25.7174 400.558 25.3761 399.236 25.3761C397.956 25.3761 396.718 25.7174 395.524 26.4001C394.329 27.0401 393.348 28.0214 392.58 29.3441C391.812 30.6668 391.428 32.2881 391.428 34.2081C391.428 36.1281 391.812 37.7494 392.58 39.0721C393.348 40.3521 394.329 41.3334 395.524 42.0161C396.718 42.6561 397.956 42.9761 399.236 42.9761C400.516 42.9761 401.753 42.6561 402.948 42.0161C404.185 41.3334 405.166 40.3308 405.892 39.0081C406.66 37.6854 407.044 36.0641 407.044 34.1441Z" stroke="white" class="juUnWdxd_9"></path>
<path d="M431.409 12.5761C429.489 12.5761 427.911 12.0214 426.673 10.9121C425.479 9.76009 424.881 8.35209 424.881 6.68809C424.881 4.98142 425.479 3.57342 426.673 2.46408C427.911 1.31208 429.489 0.736084 431.409 0.736084C433.287 0.736084 434.823 1.31208 436.017 2.46408C437.255 3.57342 437.873 4.98142 437.873 6.68809C437.873 8.35209 437.255 9.76009 436.017 10.9121C434.823 12.0214 433.287 12.5761 431.409 12.5761ZM436.849 16.2881V52.0001H425.905V16.2881H436.849Z" stroke="white" class="juUnWdxd_10"></path>
<path d="M481.26 16.2881L458.86 68.9601H447.084L455.276 50.7841L440.748 16.2881H452.972L461.228 38.6241L469.42 16.2881H481.26Z" stroke="white" class="juUnWdxd_11"></path>
<path d="M520.482 16.2881V52.0001H509.538V47.1361C508.428 48.7148 506.914 49.9948 504.994 50.9761C503.116 51.9148 501.026 52.3841 498.722 52.3841C495.991 52.3841 493.58 51.7868 491.49 50.5921C489.399 49.3548 487.778 47.5841 486.626 45.2801C485.474 42.9761 484.898 40.2668 484.898 37.1521V16.2881H495.778V35.6801C495.778 38.0694 496.396 39.9254 497.634 41.2481C498.871 42.5708 500.535 43.2321 502.626 43.2321C504.759 43.2321 506.444 42.5708 507.682 41.2481C508.919 39.9254 509.538 38.0694 509.538 35.6801V16.2881H520.482Z" stroke="white" class="juUnWdxd_12"></path>
<path d="M539.287 4.64009V52.0001H528.343V4.64009H539.287Z" stroke="white" class="juUnWdxd_13"></path>
<path d="M558.162 4.64009V52.0001H547.218V4.64009H558.162Z" stroke="white" class="juUnWdxd_14"></path>
<path d="M563.917 34.0801C563.917 30.4108 564.599 27.1894 565.965 24.4161C567.373 21.6428 569.271 19.5094 571.661 18.0161C574.05 16.5228 576.717 15.7761 579.661 15.7761C582.178 15.7761 584.375 16.2881 586.253 17.3121C588.173 18.3361 589.645 19.6801 590.669 21.3441V16.2881H601.613V52.0001H590.669V46.9441C589.602 48.6081 588.109 49.9521 586.189 50.9761C584.311 52.0001 582.114 52.5121 579.597 52.5121C576.695 52.5121 574.05 51.7654 571.661 50.2721C569.271 48.7361 567.373 46.5814 565.965 43.8081C564.599 40.9921 563.917 37.7494 563.917 34.0801ZM590.669 34.1441C590.669 31.4134 589.901 29.2588 588.365 27.6801C586.871 26.1014 585.037 25.3121 582.861 25.3121C580.685 25.3121 578.829 26.1014 577.293 27.6801C575.799 29.2161 575.053 31.3494 575.053 34.0801C575.053 36.8108 575.799 38.9868 577.293 40.6081C578.829 42.1868 580.685 42.9761 582.861 42.9761C585.037 42.9761 586.871 42.1868 588.365 40.6081C589.901 39.0294 590.669 36.8748 590.669 34.1441Z" stroke="white" class="juUnWdxd_15"></path>
<path d="M631.482 15.9041C635.578 15.9041 638.864 17.2694 641.338 20.0001C643.813 22.6881 645.05 26.4001 645.05 31.1361V52.0001H634.17V32.6081C634.17 30.2188 633.552 28.3628 632.314 27.0401C631.077 25.7174 629.413 25.0561 627.322 25.0561C625.232 25.0561 623.568 25.7174 622.33 27.0401C621.093 28.3628 620.474 30.2188 620.474 32.6081V52.0001H609.53V4.64009H620.474V21.0881C621.584 19.5094 623.098 18.2508 625.018 17.3121C626.938 16.3734 629.093 15.9041 631.482 15.9041Z" stroke="white" class="juUnWdxd_16"></path>
<style data-made-with="vivus-instant">.juUnWdxd_0{stroke-dasharray:325 327;stroke-dashoffset:326;animation:juUnWdxd_draw_0 7200ms linear 0ms infinite,juUnWdxd_fade 7200ms linear 0ms infinite;}.juUnWdxd_1{stroke-dasharray:40 42;stroke-dashoffset:41;animation:juUnWdxd_draw_1 7200ms linear 0ms infinite,juUnWdxd_fade 7200ms linear 0ms infinite;}.juUnWdxd_2{stroke-dasharray:240 242;stroke-dashoffset:241;animation:juUnWdxd_draw_2 7200ms linear 0ms infinite,juUnWdxd_fade 7200ms linear 0ms infinite;}.juUnWdxd_3{stroke-dasharray:201 203;stroke-dashoffset:202;animation:juUnWdxd_draw_3 7200ms linear 0ms infinite,juUnWdxd_fade 7200ms linear 0ms infinite;}.juUnWdxd_4{stroke-dasharray:224 226;stroke-dashoffset:225;animation:juUnWdxd_draw_4 7200ms linear 0ms infinite,juUnWdxd_fade 7200ms linear 0ms infinite;}.juUnWdxd_5{stroke-dasharray:133 135;stroke-dashoffset:134;animation:juUnWdxd_draw_5 7200ms linear 0ms infinite,juUnWdxd_fade 7200ms linear 0ms infinite;}.juUnWdxd_6{stroke-dasharray:224 226;stroke-dashoffset:225;animation:juUnWdxd_draw_6 7200ms linear 0ms infinite,juUnWdxd_fade 7200ms linear 0ms infinite;}.juUnWdxd_7{stroke-dasharray:160 162;stroke-dashoffset:161;animation:juUnWdxd_draw_7 7200ms linear 0ms infinite,juUnWdxd_fade 7200ms linear 0ms infinite;}.juUnWdxd_8{stroke-dasharray:201 203;stroke-dashoffset:202;animation:juUnWdxd_draw_8 7200ms linear 0ms infinite,juUnWdxd_fade 7200ms linear 0ms infinite;}.juUnWdxd_9{stroke-dasharray:232 234;stroke-dashoffset:233;animation:juUnWdxd_draw_9 7200ms linear 0ms infinite,juUnWdxd_fade 7200ms linear 0ms infinite;}.juUnWdxd_10{stroke-dasharray:133 135;stroke-dashoffset:134;animation:juUnWdxd_draw_10 7200ms linear 0ms infinite,juUnWdxd_fade 7200ms linear 0ms infinite;}.juUnWdxd_11{stroke-dasharray:199 201;stroke-dashoffset:200;animation:juUnWdxd_draw_11 7200ms linear 0ms infinite,juUnWdxd_fade 7200ms linear 0ms infinite;}.juUnWdxd_12{stroke-dasharray:192 194;stroke-dashoffset:193;animation:juUnWdxd_draw_12 7200ms linear 0ms infinite,juUnWdxd_fade 7200ms linear 0ms infinite;}.juUnWdxd_13{stroke-dasharray:117 119;stroke-dashoffset:118;animation:juUnWdxd_draw_13 7200ms linear 0ms infinite,juUnWdxd_fade 7200ms linear 0ms infinite;}.juUnWdxd_14{stroke-dasharray:117 119;stroke-dashoffset:118;animation:juUnWdxd_draw_14 7200ms linear 0ms infinite,juUnWdxd_fade 7200ms linear 0ms infinite;}.juUnWdxd_15{stroke-dasharray:201 203;stroke-dashoffset:202;animation:juUnWdxd_draw_15 7200ms linear 0ms infinite,juUnWdxd_fade 7200ms linear 0ms infinite;}.juUnWdxd_16{stroke-dasharray:216 218;stroke-dashoffset:217;animation:juUnWdxd_draw_16 7200ms linear 0ms infinite,juUnWdxd_fade 7200ms linear 0ms infinite;}@keyframes juUnWdxd_draw{100%{stroke-dashoffset:0;}}@keyframes juUnWdxd_fade{0%{stroke-opacity:1;}94.44444444444444%{stroke-opacity:1;}100%{stroke-opacity:0;}}@keyframes juUnWdxd_draw_0{11.11111111111111%{stroke-dashoffset: 326}38.88888888888889%{ stroke-dashoffset: 0;}100%{ stroke-dashoffset: 0;}}@keyframes juUnWdxd_draw_1{11.979166666666668%{stroke-dashoffset: 41}39.75694444444444%{ stroke-dashoffset: 0;}100%{ stroke-dashoffset: 0;}}@keyframes juUnWdxd_draw_2{12.847222222222221%{stroke-dashoffset: 241}40.625%{ stroke-dashoffset: 0;}100%{ stroke-dashoffset: 0;}}@keyframes juUnWdxd_draw_3{13.715277777777779%{stroke-dashoffset: 202}41.49305555555556%{ stroke-dashoffset: 0;}100%{ stroke-dashoffset: 0;}}@keyframes juUnWdxd_draw_4{14.583333333333334%{stroke-dashoffset: 225}42.36111111111111%{ stroke-dashoffset: 0;}100%{ stroke-dashoffset: 0;}}@keyframes juUnWdxd_draw_5{15.45138888888889%{stroke-dashoffset: 134}43.22916666666667%{ stroke-dashoffset: 0;}100%{ stroke-dashoffset: 0;}}@keyframes juUnWdxd_draw_6{16.319444444444446%{stroke-dashoffset: 225}44.09722222222222%{ stroke-dashoffset: 0;}100%{ stroke-dashoffset: 0;}}@keyframes juUnWdxd_draw_7{17.1875%{stroke-dashoffset: 161}44.96527777777778%{ stroke-dashoffset: 0;}100%{ stroke-dashoffset: 0;}}@keyframes juUnWdxd_draw_8{18.055555555555554%{stroke-dashoffset: 202}45.83333333333333%{ stroke-dashoffset: 0;}100%{ stroke-dashoffset: 0;}}@keyframes juUnWdxd_draw_9{18.92361111111111%{stroke-dashoffset: 233}46.70138888888889%{ stroke-dashoffset: 0;}100%{ stroke-dashoffset: 0;}}@keyframes juUnWdxd_draw_10{19.791666666666664%{stroke-dashoffset: 134}47.56944444444444%{ stroke-dashoffset: 0;}100%{ stroke-dashoffset: 0;}}@keyframes juUnWdxd_draw_11{20.65972222222222%{stroke-dashoffset: 200}48.4375%{ stroke-dashoffset: 0;}100%{ stroke-dashoffset: 0;}}@keyframes juUnWdxd_draw_12{21.52777777777778%{stroke-dashoffset: 193}49.30555555555556%{ stroke-dashoffset: 0;}100%{ stroke-dashoffset: 0;}}@keyframes juUnWdxd_draw_13{22.395833333333336%{stroke-dashoffset: 118}50.173611111111114%{ stroke-dashoffset: 0;}100%{ stroke-dashoffset: 0;}}@keyframes juUnWdxd_draw_14{23.26388888888889%{stroke-dashoffset: 118}51.041666666666664%{ stroke-dashoffset: 0;}100%{ stroke-dashoffset: 0;}}@keyframes juUnWdxd_draw_15{24.131944444444446%{stroke-dashoffset: 202}51.90972222222222%{ stroke-dashoffset: 0;}100%{ stroke-dashoffset: 0;}}@keyframes juUnWdxd_draw_16{25%{stroke-dashoffset: 217}52.77777777777778%{ stroke-dashoffset: 0;}100%{ stroke-dashoffset: 0;}}</style></svg>
